PathFileType	4	(X/Y/Z)	D:\TRACE\v60_Jaco2_6-2-23\JustBodyDRS_Motion2_1-v60.trc
DataRate	CameraRate	NumFrames	NumMarkers	Units	OrigDataRate	OrigDataStartFrame	OrigNumFrames
100.00	100.00	      38	9	mm	100.00	6133	      7009
Frame#	Time	front left toe			Front right toe			aft left toe			aft right toe			Arm			FL body			FR body			AL Body			AR Body			
		X1	Y1	Z1	X2	Y2	Z2	X3	Y3	Z3	X4	Y4	Z4	X5	Y5	Z5	X6	Y6	Z6	X7	Y7	Z7	X8	Y8	Z8	X9	Y9	Z9	

6133	61.320	-219.58022	107.45660	-243.47475	129.01361	38.08437	-230.00011	-275.37445	-14.18944	374.95428	160.93146	39.87994	380.84961	-138.88269	1242.70447	-319.49561	-117.21597	612.82904	-374.13687	42.59687	611.32294	-371.63321	-134.47968	522.67194	567.42432	21.07403	514.59796	569.24835	
6134	61.330	-217.57611	95.70439	-241.51334	128.09811	37.61607	-230.21158	-276.26593	-13.98052	374.94254	164.37370	29.86402	381.31067	-137.68198	1242.58679	-319.75964	-116.12389	612.77197	-374.33426	43.34528	611.10321	-372.04126	-133.49820	522.50415	567.24493	22.31621	514.25787	569.04364	
6135	61.340	-215.71469	84.37838	-240.18216	127.49820	37.15994	-230.55682	-277.14581	-13.32153	374.89023	167.23904	19.76664	381.00351	-136.58208	1242.71716	-320.37149	-116.49582	612.84619	-374.91223	44.12992	610.81677	-372.41739	-131.38420	522.14447	566.95282	23.72897	513.95361	568.63727	
6136	61.350	-213.72032	73.58736	-239.53290	126.95474	36.80643	-230.65221	-277.97449	-12.57756	374.76691	170.43979	10.59220	380.70041	-135.10483	1242.78528	-320.72214	-115.70891	612.67249	-375.14569	44.55125	610.37927	-372.46042	-129.69379	521.95209	566.87811	25.61163	513.87854	568.50598	
6137	61.360	-212.15428	63.95247	-239.08733	125.78733	36.32865	-231.06581	-278.57178	-12.11325	374.67700	172.86455	1.71265	380.00974	-134.38536	1242.57471	-321.06314	-114.91904	612.70172	-375.46594	44.98530	610.48145	-372.82578	-128.02980	522.30859	566.64557	27.27375	513.48010	566.94678	
6138	61.370	-210.48116	54.33120	-238.58319	124.91681	35.95280	-231.42667	-279.18265	-11.71355	374.47952	174.44797	-6.18706	379.25327	-133.93781	1242.21973	-321.37952	-114.35114	612.57916	-375.67740	46.18497	610.36407	-373.65710	-126.44757	521.95831	566.40411	29.18893	513.47205	567.37317	
6139	61.380	-208.95256	46.71861	-238.85442	124.26073	35.30940	-231.65654	-280.06073	-11.16326	374.66608	174.65199	-5.38496	376.67114	-133.00609	1241.53333	-321.37030	-113.52763	612.08466	-375.85574	46.74490	610.17767	-374.11169	-124.39883	521.76465	566.42944	31.03676	513.66364	567.05719	
6140	61.390	-208.00436	41.70905	-239.86890	123.34739	34.66356	-231.83247	-280.39041	-10.50988	374.67358	174.43794	-6.31666	377.83646	-137.73743	1242.58472	-317.78665	-112.53618	611.02844	-376.01501	47.74256	609.35638	-374.52032	-122.43695	522.53021	566.08905	32.56703	514.67157	566.88928	
6141	61.400	-210.26402	41.31122	-241.55879	122.77334	34.34350	-231.75024	-280.76926	-9.16601	374.68805	172.98004	-6.12760	376.83969	-131.40805	1241.26392	-322.21619	-111.52582	610.07483	-376.30060	49.09929	608.74988	-374.97510	-120.89683	524.02325	566.06036	34.58995	516.25824	566.75403	
6142	61.410	-211.83618	38.99771	-241.37473	122.43606	34.25412	-231.54543	-281.13638	-8.02686	374.95999	171.91232	-6.91721	379.05637	-131.38361	1241.33484	-324.03827	-110.51411	610.80115	-376.36530	49.11206	608.79150	-374.74356	-119.07840	524.81110	566.31067	35.51477	516.87805	566.53613	
6143	61.420	-212.76839	40.19216	-240.96471	121.23268	36.51335	-232.98999	-281.25491	-5.62999	374.08939	171.30333	-6.99860	377.84903	-130.88185	1241.00208	-325.76804	-109.90184	612.55023	-376.50641	50.37537	610.22839	-375.32037	-116.56628	525.37103	566.69550	37.85361	516.32153	565.52258	
6144	61.430	-212.55988	39.65207	-240.43024	117.90681	40.00665	-230.81526	-278.93533	-3.29643	374.17508	170.74428	-7.17349	377.92172	-129.86510	1241.15051	-326.85986	-108.68063	613.92529	-376.54333	50.58175	611.55231	-375.73486	-115.99770	524.55597	565.20020	39.70138	516.08368	565.42010	
6145	61.440	-213.58414	39.88780	-242.32892	117.43224	47.35854	-229.75487	-274.41403	2.48949	374.86435	169.99451	-6.90729	377.59860	-128.40907	1242.47327	-326.33063	-109.09653	614.61865	-377.63901	50.91619	612.41498	-376.62430	-114.62199	524.65485	564.45038	41.43402	516.21240	564.49530	
6146	61.450	-214.53574	38.42905	-241.25806	119.06124	56.62569	-229.46048	-269.16461	11.81734	372.92316	168.96275	-6.24295	376.86084	-125.60469	1244.32520	-323.53464	-109.34415	614.71899	-378.77374	51.14929	612.36377	-378.19464	-112.83055	525.15460	563.17371	42.68824	516.90021	563.31042	
6147	61.460	-215.85802	38.06837	-242.06529	121.93863	68.87026	-231.43149	-263.94998	21.80113	372.12735	167.39934	-6.26886	376.76587	-124.01559	1246.62598	-324.10977	-108.72627	614.35474	-379.19073	50.51804	611.99823	-379.16263	-111.10275	525.55206	562.67865	44.08027	516.67303	561.46686	
6148	61.470	-216.86592	37.57988	-242.34299	124.03484	81.96719	-235.06999	-260.56876	34.77557	370.68881	166.88728	-6.18168	376.39563	-123.25826	1247.47937	-323.85297	-109.65958	614.95050	-380.32709	50.34193	612.29974	-380.50946	-109.81812	524.98993	562.08911	46.08302	516.76477	561.14069	
6149	61.480	-217.71590	37.40461	-242.22499	127.79354	95.47797	-238.49052	-257.73206	46.51388	369.22607	166.13675	-5.71923	376.16031	-123.31457	1247.22974	-324.48019	-109.98048	615.15210	-380.87753	50.38034	612.49432	-381.39545	-108.13470	524.43274	561.29425	48.12806	515.91577	560.04865	
6150	61.490	-219.19739	37.09795	-242.43759	130.81569	108.49999	-242.76549	-254.58028	59.77331	367.25879	164.79979	-5.41868	375.78738	-124.42689	1245.86511	-325.84232	-110.14979	615.27240	-381.41772	50.32690	612.34729	-382.45105	-106.17064	524.09668	560.41797	49.21255	515.07373	559.18573	
6151	61.500	-220.15314	36.42895	-242.86734	134.07545	121.34163	-246.33632	-250.48079	72.08072	365.69183	164.14140	-4.71981	375.72034	-125.31534	1244.55786	-327.44107	-110.25159	615.54175	-382.11520	50.17941	612.28180	-383.34451	-104.39233	523.39221	559.65271	51.61542	514.27832	558.25842	
6152	61.510	-221.36868	35.87032	-243.06844	136.59518	133.28442	-249.93047	-246.94658	85.38039	364.00919	163.06364	-4.31923	375.20837	-125.40928	1243.65906	-328.23804	-110.76577	615.42255	-382.72336	49.62850	611.92706	-384.54636	-102.50607	522.69019	559.19006	53.17493	513.70721	557.01379	
6153	61.520	-222.16750	35.12067	-243.36569	139.86797	144.44513	-253.26479	-240.35387	95.80849	362.99716	161.86736	-4.33567	374.92139	-125.22330	1243.69653	-328.51306	-110.42781	614.27197	-383.30780	49.37232	611.69598	-385.43546	-100.98292	522.62006	558.42291	54.93708	513.70593	556.01941	
6154	61.530	-223.43762	35.09565	-243.60878	144.15887	154.74634	-255.98692	-233.52792	105.54085	361.93863	161.02283	-3.74073	374.71829	-125.07542	1244.18005	-328.69171	-111.32500	613.87970	-384.22604	48.62989	610.85046	-386.69089	-99.48528	522.80389	557.37091	56.90441	513.92828	555.09290	
6155	61.540	-225.02351	34.55329	-243.66782	148.76788	162.94220	-258.93884	-225.75479	111.73156	361.76016	160.18820	-3.43251	374.42206	-125.11916	1244.31665	-329.13953	-111.99814	613.20703	-385.00186	48.55280	610.21472	-387.61847	-97.86036	523.04413	557.04065	58.00449	514.15405	554.11023	
6156	61.550	-225.45447	33.83122	-243.75113	153.44250	167.31673	-260.88657	-217.43611	115.69944	361.36511	159.45018	-3.10912	374.08588	-125.35128	1243.63232	-330.15961	-111.99364	612.28357	-385.29617	47.40424	609.43646	-388.56580	-96.25441	522.81946	556.39270	59.63761	514.48065	553.06506	
6157	61.560	-226.46883	33.42192	-243.95291	156.96352	169.24496	-262.65622	-211.11163	117.13911	361.71375	158.55344	-2.58424	373.85690	-125.88252	1242.67102	-331.66415	-112.81169	611.62640	-386.20911	47.18579	608.77911	-389.29651	-94.71658	523.46332	555.84991	61.23129	514.68988	552.27991	
6158	61.570	-227.68446	33.20355	-244.08559	160.21745	167.98743	-264.20282	-204.32581	115.04836	362.42480	157.48935	-2.23322	373.65265	-126.54031	1241.63635	-333.50354	-113.39791	611.20013	-386.79803	46.73355	608.33582	-390.07037	-93.07581	523.60089	555.19617	63.57110	515.29443	551.27283	
6159	61.580	-228.54561	32.97525	-244.34114	163.29677	164.66208	-265.53043	-199.58112	112.27678	362.31128	156.32509	-2.16386	373.40561	-127.62015	1240.61621	-335.30609	-113.62933	610.67584	-387.26865	46.58469	608.02045	-391.44437	-90.52654	523.92255	554.97363	64.98770	515.42358	550.33759	
6160	61.590	-229.53401	32.77610	-244.31891	165.92888	159.49947	-267.82037	-194.30988	108.04105	362.32904	155.55646	-1.54597	372.91992	-129.63496	1240.06006	-336.94080	-114.29372	610.06464	-387.92307	46.05132	607.54492	-392.67593	-89.19393	524.18805	554.26477	66.14116	516.18909	549.59100	
6161	61.600	-230.95624	32.45287	-244.34767	168.92851	153.36606	-269.91211	-188.15120	102.55401	362.40289	154.68202	-1.15306	372.84619	-129.11133	1240.24927	-339.91620	-114.50335	609.31866	-388.80649	45.80004	607.12183	-393.74115	-87.63567	524.94879	553.38843	68.59734	516.81299	548.51593	
6162	61.610	-231.65909	31.85578	-244.64656	171.93497	145.93187	-272.71439	-182.33218	96.05451	362.31647	153.90015	-0.56897	372.67773	-131.30998	1239.13818	-339.61295	-115.20506	608.00146	-389.74261	45.23677	606.26843	-394.91971	-85.71561	525.13220	552.53558	70.10843	517.58417	547.31537	
6163	61.620	-232.62875	31.32908	-244.75111	175.21300	137.83739	-275.79874	-176.34427	88.80666	361.95621	152.88306	-0.23594	372.24997	-133.43040	1238.44702	-341.10699	-115.73256	607.44391	-390.67496	44.52789	605.87775	-396.28101	-84.39764	525.80835	551.49695	71.72936	518.41150	545.91541	
6164	61.630	-233.76422	30.87965	-244.84012	177.90535	128.73746	-279.53625	-170.09653	80.68414	360.84326	151.76143	0.03451	371.89468	-134.44016	1238.34595	-342.45950	-115.85261	606.34406	-391.52802	43.54152	605.39783	-397.89597	-82.51328	526.01306	550.63684	73.20255	519.24493	544.52167	
6165	61.640	-234.44896	30.26685	-244.98756	181.15164	119.84706	-283.49765	-162.52489	69.77209	359.52472	150.84111	0.62703	371.64810	-136.37515	1237.83240	-344.89651	-117.38922	606.21881	-393.00949	42.65424	605.29700	-399.61392	-80.95268	526.83368	549.06287	75.11216	519.79840	542.94019	
6166	61.650	-235.52899	30.02219	-245.10599	182.68053	110.95560	-288.71240	-156.54720	59.23489	357.63190	150.21010	1.28747	371.24435	-137.68953	1237.01855	-346.68192	-118.32769	605.83496	-394.28879	42.33987	605.30652	-401.11761	-79.01093	526.66827	548.08691	76.81569	520.20636	541.36591	
6167	61.660	-237.04703	29.67676	-245.44031	184.16983	101.75735	-294.01895	-150.03873	48.75099	355.02707	148.73302	1.46013	370.78137	-140.10822	1236.32263	-349.62003	-119.44040	605.17999	-395.63474	41.08964	604.89825	-402.86386	-77.57682	526.64392	546.43488	78.44123	520.71204	539.38971	
6168	61.670	-237.48705	28.61397	-245.91096	184.83565	92.90611	-299.85263	-144.76328	39.26287	351.28647	148.08588	2.19867	370.46909	-142.56819	1235.68518	-351.80640	-120.28262	604.56128	-397.38156	39.47390	604.73132	-405.01797	-75.49144	526.98706	544.73438	80.20020	521.16846	537.19482	
6169	61.680	-238.81944	28.30169	-246.15187	184.67133	84.23980	-305.52942	-141.24094	29.63212	347.27338	147.34081	2.68981	369.96228	-145.92229	1234.83630	-352.86969	-121.48692	604.15723	-399.11368	38.53945	604.73083	-407.32953	-73.90846	526.86517	542.91870	82.52671	521.82080	535.22174	
6170	61.690	-239.55301	27.59056	-246.30043	183.51590	75.36026	-310.59946	-139.11597	21.27363	343.02438	146.08981	3.06218	369.43906	-148.71930	1234.62927	-354.09280	-122.78762	603.73395	-401.11264	37.50779	604.57513	-409.82010	-72.25576	526.95239	540.94397	84.13627	522.04108	532.82593	
